#!OML:ASF H:\Male1\Project 1\Capture day 1\Session 1\Male1.ASF
:FULLY-SPECIFIED
:DEGREES
716
root 15.7008 15.0592 -2.11292 -18.3825 -97.3693 18.2764
lowerback 8.15003 2.07173 6.21898
upperback 3.20309 3.12678 0.907648
thorax -0.949975 1.55105 -2.81313
lowerneck -1.34176 3.93513 9.32108
upperneck -8.01522 4.6435 -9.60009
head -1.67865 2.23464 -4.4485
rclavicle -6.84813e-014 -2.38542e-015
rhumerus -18.1295 29.7169 -94.8859
rradius 59.1285
rwrist -35.7796
rhand -20.0572 3.97031
rfingers 7.12502
rthumb 6.28456 -25.9165
lclavicle -6.84813e-014 -2.38542e-015
lhumerus -28.7903 -26.1931 86.3538
lradius 84.2704
lwrist -6.25198
lhand 1.6973 0.298623
lfingers 7.12502
lthumb 27.2151 28.3555
rfemur -8.38946 13.3618 28.5284
rtibia 32.256
rfoot -42.4793 -28.8923
rtoes -31.7683
lfemur -18.7518 -0.509375 -17.9559
ltibia 51.4517
lfoot -27.8515 16.2972
ltoes -6.19977
717
root 15.7488 15.052 -2.1008 -19.1077 -96.9932 19.2207
lowerback 7.86605 1.935 6.29425
upperback 3.1149 2.93896 0.922954
thorax -0.898989 1.45982 -2.81491
lowerneck -1.16931 4.00415 9.41094
upperneck -8.19424 4.72384 -9.87528
head -1.74039 2.28124 -4.55422
rclavicle 1.6201e-014 -7.15625e-015
rhumerus -17.4693 30.0861 -94.7774
rradius 60.5098
rwrist -35.9193
rhand -20.4474 4.54332
rfingers 7.12502
rthumb 5.9079 -25.3543
lclavicle 1.6201e-014 -7.15625e-015
lhumerus -27.2778 -27.4441 85.2
lradius 86.294
lwrist -6.66267
lhand 1.97112 0.202416
lfingers 7.12502
lthumb 27.477 28.218
rfemur -9.01253 12.8156 28.3059
rtibia 32.5126
rfoot -42.0987 -29.0502
rtoes -32.9431
lfemur -17.8575 -1.06513 -18.2113
ltibia 51.0934
lfoot -27.9783 15.9233
ltoes -8.00294
718
root 15.7993 15.0391 -2.09765 -18.8495 -97.0902 18.9812
lowerback 7.89203 2.00125 6.13533
upperback 3.09376 3.01937 0.983153
thorax -0.940311 1.49679 -2.67197
lowerneck -1.23942 4.07404 9.34514
upperneck -8.14678 4.81082 -9.92744
head -1.7063 2.32595 -4.55628
rclavicle -3.89618e-014 -3.57812e-015
rhumerus -16.7544 30.3103 -94.5865
rradius 61.96
rwrist -36.0997
rhand -20.5809 4.69889
rfingers 7.12502
rthumb 5.77896 -25.2023
lclavicle -3.89618e-014 -3.57812e-015
lhumerus -25.5787 -28.5807 83.9688
lradius 88.1933
lwrist -7.16117
lhand 2.13157 0.444253
lfingers 7.12502
lthumb 27.6304 28.4354
rfemur -9.38024 13.0942 28.294
rtibia 32.7242
rfoot -42.164 -29.0034
rtoes -32.8023
lfemur -16.7842 -1.1601 -18.3439
ltibia 50.6731
lfoot -28.3975 14.9936
ltoes -8.32787
719
root 15.8391 15.0512 -2.08923 -19.9815 -97.0126 20.2744
lowerback 7.80573 2.02987 6.22368
upperback 3.01965 3.0637 1.01027
thorax -0.962064 1.5182 -2.69457
lowerneck -1.33973 4.10016 9.33921
upperneck -8.08678 4.84209 -9.91236
head -1.66989 2.33913 -4.54701
rclavicle -1.78906e-014 -2.50469e-014
rhumerus -16.0841 30.5027 -94.3652
rradius 63.6178
rwrist -36.4385
rhand -20.7965 4.75905
rfingers 7.12502
rthumb 5.57088 -25.1477
lclavicle -1.78906e-014 -2.50469e-014
lhumerus -23.7615 -29.8072 82.6079
lradius 90.0751
lwrist -7.673
lhand 2.35287 1.15654
lfingers 7.12502
lthumb 27.842 29.1136
rfemur -9.77416 12.7697 28.2783
rtibia 32.8525
rfoot -42.1696 -28.4536
rtoes -32.1835
lfemur -16.3261 -1.54611 -18.3136
ltibia 50.2462
lfoot -28.2627 14.6845
ltoes -9.68828
720
root 15.8812 15.0526 -2.07774 -21.198 -96.7181 21.7342
lowerback 7.6746 1.95991 6.22374
upperback 2.91262 2.9707 1.04814
thorax -1.01143 1.46972 -2.64588
lowerneck -1.11928 4.16647 9.40806
upperneck -8.41924 4.91682 -10.0994
head -1.78807 2.38177 -4.62686
rclavicle 5.1684e-015 -1.35174e-014
rhumerus -15.4541 30.8988 -94.1344
rradius 65.3298
rwrist -36.8351
rhand -21.0192 4.82084
rfingers 7.12502
rthumb 5.35582 -25.0915
lclavicle 5.1684e-015 -1.35174e-014
lhumerus -21.8794 -30.614 81.2244
lradius 91.9155
lwrist -8.09551
lhand 2.90627 1.88193
lfingers 7.12502
lthumb 28.371 29.7521
rfemur -10.3182 12.3031 28.1684
rtibia 33.0397
rfoot -42.041 -28.0957
rtoes -31.8104
lfemur -15.998 -2.04068 -18.3701
ltibia 49.8535
lfoot -28.1853 14.7538
ltoes -11.8861
721
root 15.9161 15.0463 -2.06263 -21.5842 -96.5199 22.1696
lowerback 7.5881 1.92136 6.1048
upperback 2.93927 2.90375 1.08038
thorax -0.950214 1.43781 -2.53716
lowerneck -0.951262 4.13706 9.32125
upperneck -8.68747 4.87084 -10.105
head -1.90077 2.3637 -4.62409
rclavicle 3.47873e-015 2.78299e-015
rhumerus -14.7464 31.3078 -93.8708
rradius 67.072
rwrist -37.207
rhand -21.2472 4.5025
rfingers 7.12502
rthumb 5.13568 -25.4153
lclavicle 3.47873e-015 2.78299e-015
lhumerus -20.032 -30.9059 80.0329
lradius 93.6845
lwrist -9.12236
lhand 3.41382 2.39206
lfingers 7.12502
lthumb 28.8559 30.1805
rfemur -10.6227 12.21 28.0364
rtibia 33.1718
rfoot -41.8879 -28.0418
rtoes -31.39
lfemur -15.353 -2.50347 -18.5207
ltibia 49.4615
lfoot -28.6853 14.8031
ltoes -12.3578
722
root 15.9601 15.0362 -2.05385 -22.5551 -96.1466 23.4104
lowerback 7.39878 1.86578 5.86137
upperback 2.93055 2.80244 1.11269
thorax -0.878061 1.3886 -2.35358
lowerneck -0.913985 4.22483 9.19747
upperneck -9.07582 4.96977 -9.98647
head -2.01854 2.41065 -4.57617
rclavicle 3.86636e-014 -1.59028e-015
rhumerus -13.9021 31.617 -93.5293
rradius 68.8408
rwrist -37.5347
rhand -21.6943 4.30386
rfingers 7.12502
rthumb 4.70391 -25.6239
lclavicle 3.86636e-014 -1.59028e-015
lhumerus -18.0372 -31.1312 78.8044
lradius 95.4917
lwrist -9.97753
lhand 4.40726 3.09978
lfingers 7.12502
lthumb 29.8044 30.7223
rfemur -11.2485 12.2697 27.9314
rtibia 33.4028
rfoot -41.9594 -28.1898
rtoes -30.7726
lfemur -15.0063 -2.66286 -18.5536
ltibia 49.0778
lfoot -29.0119 15.1276
ltoes -13.6366
723
root 15.9937 15.0464 -2.04112 -22.7195 -95.8163 23.7533
lowerback 7.33814 1.84208 5.61342
upperback 2.96099 2.74917 1.07787
thorax -0.82859 1.36315 -2.2446
lowerneck -0.995769 4.20046 9.28029
upperneck -9.29772 4.91059 -10.0277
head -2.07248 2.3747 -4.60544
rclavicle -2.05742e-014 3.97569e-015
rhumerus -13.0098 31.7916 -93.1796
rradius 70.5651
rwrist -37.7453
rhand -22.1872 4.53979
rfingers 7.12502
rthumb 4.22801 -25.398
lclavicle -2.05742e-014 3.97569e-015
lhumerus -15.9475 -31.4552 77.4851
lradius 97.2641
lwrist -10.6371
lhand 4.64606 3.43165
lfingers 7.12502
lthumb 30.0323 31.0131
rfemur -11.7283 12.1034 27.691
rtibia 33.5691
rfoot -41.7448 -28.2583
rtoes -30.4523
lfemur -14.9231 -2.93992 -18.5996
ltibia 48.6533
lfoot -29.1392 15.5035
ltoes -13.225
724
root 16.0225 15.0567 -2.02501 -22.1155 -95.451 23.1774
lowerback 7.41338 1.82002 5.33547
upperback 3.03636 2.70126 0.9793
thorax -0.805307 1.33988 -2.18926
lowerneck -0.956553 4.23523 9.31014
upperneck -9.79176 4.92326 -10.0387
head -2.22178 2.37564 -4.62548
rclavicle 2.46493e-014 -3.97569e-016
rhumerus -12.1115 31.9668 -92.8126
rradius 72.3663
rwrist -37.8584
rhand -22.6498 4.50978
rfingers 7.12502
rthumb 3.78124 -25.4364
lclavicle 2.46493e-014 -3.97569e-016
lhumerus -13.8273 -31.7498 76.2233
lradius 98.9917
lwrist -11.4291
lhand 4.13618 3.54851
lfingers 7.12502
lthumb 29.5457 31.2171
rfemur -12.009 11.6897 27.3291
rtibia 33.6882
rfoot -41.1884 -28.1407
rtoes -29.978
lfemur -14.7252 -3.14448 -18.7219
ltibia 48.1858
lfoot -29.174 15.8647
ltoes -12.6381
725
root 16.0453 15.0661 -2.00833 -21.9184 -94.9237 23.0377
lowerback 7.4286 1.73754 5.03191
upperback 3.09576 2.56902 0.86209
thorax -0.771677 1.2748 -2.13068
lowerneck -0.845252 4.13691 9.04261
upperneck -10.202 4.79479 -9.65272
head -2.39355 2.30762 -4.47508
rclavicle -1.15295e-014 -3.18055e-015
rhumerus -11.273 32.2897 -92.4459
rradius 74.2447
rwrist -37.818
rhand -23.5331 4.54892
rfingers 7.12502
rthumb 2.92828 -25.4107
lclavicle -1.15295e-014 -3.18055e-015
lhumerus -11.7815 -31.939 75.0641
lradius 100.716
lwrist -12.4077
lhand 3.32208 3.95129
lfingers 7.12502
lthumb 28.7683 31.7547
rfemur -12.1841 11.2627 26.9552
rtibia 33.7043
rfoot -40.6842 -27.6027
rtoes -27.6672
lfemur -14.6534 -3.43988 -18.7832
ltibia 47.6438
lfoot -29.069 16.0336
ltoes -12.0225
